<svg width="24" height="24" viewBox="0 0 24 24" fill="none" xmlns="http://www.w3.org/2000/svg">
<path d="M14 18C14.5523 18 15 18.4477 15 19C15 19.5128 14.614 19.9355 14.1166 19.9933L14 20H4C3.44772 20 3 19.5523 3 19C3 18.4872 3.38604 18.0645 3.88338 18.0067L4 18H14ZM20 13C20.5523 13 21 13.4477 21 14C21 14.5523 20.5523 15 20 15H4C3.44772 15 3 14.5523 3 14C3 13.4477 3.44772 13 4 13H20ZM14 8C14.5523 8 15 8.44772 15 9C15 9.51283 14.614 9.93551 14.1166 9.99327L14 10H4C3.44772 10 3 9.55228 3 9C3 8.48717 3.38604 8.06449 3.88338 8.00673L4 8H14ZM20 3C20.5523 3 21 3.44772 21 4C21 4.51283 20.614 4.93551 20.1166 4.99327L20 5H4C3.44772 5 3 4.55228 3 4C3 3.48717 3.38604 3.06449 3.88338 3.00673L4 3H20Z" fill="#09244B"/>
</svg>
