<svg width="20" height="20" viewBox="0 0 20 20" fill="none" xmlns="http://www.w3.org/2000/svg">
<path fill-rule="evenodd" clip-rule="evenodd" d="M4.88652 5.30171C5.61985 4.52921 5.87902 4.31254 6.19152 4.21171C6.40778 4.15504 6.6346 4.15189 6.85235 4.20254C7.13902 4.28587 7.21485 4.34921 8.15485 5.28587C8.98068 6.10837 9.06318 6.19754 9.14235 6.35837C9.29373 6.64069 9.31738 6.97419 9.20735 7.27504C9.12402 7.50421 9.00568 7.65587 8.50485 8.15837L8.17818 8.48587C8.0924 8.57306 8.07223 8.70544 8.12818 8.81421C8.85396 10.0524 9.88366 11.085 11.1199 11.8142C11.2621 11.8904 11.4374 11.8658 11.5532 11.7534L11.8674 11.4442C12.0615 11.2452 12.2672 11.0576 12.4832 10.8825C12.8225 10.6742 13.2452 10.6556 13.6015 10.8334C13.7757 10.9167 13.8332 10.9684 14.6848 11.8184C15.5632 12.6942 15.5882 12.7217 15.6849 12.9225C15.8668 13.255 15.8649 13.6576 15.6798 13.9884C15.5857 14.175 15.5282 14.2425 15.034 14.7475C14.7357 15.0525 14.4548 15.3309 14.4098 15.3717C14.0022 15.7092 13.4791 15.8748 12.9515 15.8334C11.9861 15.7454 11.0517 15.447 10.214 14.9592C8.35829 13.976 6.77852 12.5435 5.61902 10.7925C5.36647 10.4261 5.14194 10.0411 4.94735 9.64088C4.42534 8.74618 4.15577 7.72665 4.16735 6.69087C4.2072 6.14901 4.46706 5.64706 4.88652 5.30171Z" stroke="#485467" stroke-width="1.2" stroke-linecap="round" stroke-linejoin="round"/>
</svg>
