<svg width="20" height="20" viewBox="0 0 20 20" fill="none" xmlns="http://www.w3.org/2000/svg">
<path d="M7.50008 12.5001C7.50008 12.5001 8.43758 13.3334 10.0001 13.3334C11.5626 13.3334 12.5001 12.5001 12.5001 12.5001M14.1667 8.33341C14.1667 8.79365 13.7937 9.16675 13.3334 9.16675C12.8732 9.16675 12.5001 8.79365 12.5001 8.33341C12.5001 7.87318 12.8732 7.50008 13.3334 7.50008C13.7937 7.50008 14.1667 7.87318 14.1667 8.33341ZM18.3334 10.0001C18.3334 14.6025 14.6025 18.3334 10.0001 18.3334C5.39771 18.3334 1.66675 14.6025 1.66675 10.0001C1.66675 5.39771 5.39771 1.66675 10.0001 1.66675C14.6025 1.66675 18.3334 5.39771 18.3334 10.0001ZM7.50008 8.33341C7.50008 8.79365 7.12699 9.16675 6.66675 9.16675C6.20651 9.16675 5.83341 8.79365 5.83341 8.33341C5.83341 7.87318 6.20651 7.50008 6.66675 7.50008C7.12699 7.50008 7.50008 7.87318 7.50008 8.33341Z" stroke="#666666" stroke-width="1.25" stroke-linecap="round" stroke-linejoin="round"/>
</svg>
