<svg width="16" height="16" viewBox="0 0 16 16" fill="none" xmlns="http://www.w3.org/2000/svg">
<path d="M13.9498 4.14421C14.0152 4.07491 14.094 4.0197 14.1816 3.98196C14.2691 3.94423 14.3633 3.92477 14.4586 3.92477C14.5539 3.92477 14.6482 3.94423 14.7357 3.98196C14.8232 4.0197 14.9021 4.07491 14.9675 4.14421C15.2488 4.43671 15.2488 4.91071 14.9675 5.20321L6.32001 14.21C5.9931 14.5564 5.59885 14.8324 5.16146 15.0211C4.72406 15.2097 4.25273 15.3071 3.77639 15.3071C3.30004 15.3071 2.82872 15.2097 2.39132 15.0211C1.95392 14.8324 1.55968 14.5564 1.23276 14.21C-0.171988 12.7475 -0.171988 10.3752 1.23276 8.91196L8.86251 0.964958C9.05879 0.757274 9.29539 0.591833 9.55782 0.478763C9.82026 0.365693 10.103 0.307373 10.3888 0.307373C10.6745 0.307373 10.9573 0.365693 11.2197 0.478763C11.4821 0.591833 11.7187 0.757274 11.915 0.964958C12.758 1.84246 12.758 3.26596 11.915 4.14421L5.30151 11.03C5.23611 11.0991 5.15728 11.1542 5.06985 11.1919C4.98241 11.2296 4.88821 11.249 4.79301 11.249C4.69781 11.249 4.60361 11.2296 4.51618 11.1919C4.42874 11.1542 4.34991 11.0991 4.28451 11.03C4.14961 10.8867 4.07449 10.6973 4.07449 10.5005C4.07449 10.3036 4.14961 10.1143 4.28451 9.97096L10.898 3.08371C11.0331 2.94037 11.1084 2.75082 11.1084 2.55383C11.1084 2.35685 11.0331 2.1673 10.898 2.02396C10.8326 1.95466 10.7537 1.89945 10.6662 1.86171C10.5787 1.82398 10.4844 1.80452 10.3891 1.80452C10.2938 1.80452 10.1996 1.82398 10.1121 1.86171C10.0245 1.89945 9.94567 1.95466 9.88026 2.02396L2.24901 9.97246C1.40676 10.85 1.40676 12.2735 2.24901 13.151C2.44529 13.3586 2.68189 13.5241 2.94432 13.6372C3.20675 13.7502 3.48951 13.8085 3.77526 13.8085C4.06102 13.8085 4.34377 13.7502 4.6062 13.6372C4.86864 13.5241 5.10524 13.3586 5.30151 13.151L13.9498 4.14421Z" fill="black" fill-opacity="0.6"/>
</svg>
