<svg width="17" height="18" viewBox="0 0 17 18" fill="none" xmlns="http://www.w3.org/2000/svg">
<path d="M11.0314 11.4679C11.3588 11.5771 11.7128 11.4001 11.8219 11.0726C11.9311 10.7452 11.7541 10.3912 11.4266 10.2821L11.0314 11.4679ZM8.4165 9.9375H7.7915C7.7915 10.2065 7.96365 10.4454 8.21886 10.5304L8.4165 9.9375ZM9.0415 6.01739C9.0415 5.67221 8.76168 5.39239 8.4165 5.39239C8.07133 5.39239 7.7915 5.67221 7.7915 6.01739H9.0415ZM11.229 10.875L11.4266 10.2821L8.61415 9.34457L8.4165 9.9375L8.21886 10.5304L11.0314 11.4679L11.229 10.875ZM8.4165 9.9375H9.0415V6.01739H8.4165H7.7915V9.9375H8.4165ZM15.9165 9H15.2915C15.2915 12.797 12.2135 15.875 8.4165 15.875V16.5V17.125C12.9038 17.125 16.5415 13.4873 16.5415 9H15.9165ZM8.4165 16.5V15.875C4.61955 15.875 1.5415 12.797 1.5415 9H0.916504H0.291504C0.291504 13.4873 3.92919 17.125 8.4165 17.125V16.5ZM0.916504 9H1.5415C1.5415 5.20304 4.61955 2.125 8.4165 2.125V1.5V0.875C3.92919 0.875 0.291504 4.51269 0.291504 9H0.916504ZM8.4165 1.5V2.125C12.2135 2.125 15.2915 5.20304 15.2915 9H15.9165H16.5415C16.5415 4.51269 12.9038 0.875 8.4165 0.875V1.5Z" fill="#666666"/>
</svg>
