<svg width="15" height="15" viewBox="0 0 15 15" fill="none" xmlns="http://www.w3.org/2000/svg">
<path d="M12.6448 5.79607L12.8088 5.41874C13.0972 4.75122 13.6252 4.21602 14.2888 3.91874L14.7948 3.69274C14.8562 3.6645 14.9082 3.61925 14.9447 3.56236C14.9811 3.50546 15.0005 3.43931 15.0005 3.37174C15.0005 3.30417 14.9811 3.23801 14.9447 3.18112C14.9082 3.12422 14.8562 3.07897 14.7948 3.05074L14.3168 2.83807C13.6366 2.53232 13.0995 1.97732 12.8162 1.2874L12.6475 0.88007C12.6227 0.816972 12.5795 0.762802 12.5235 0.72462C12.4675 0.686438 12.4013 0.666016 12.3335 0.666016C12.2657 0.666016 12.1995 0.686438 12.1435 0.72462C12.0875 0.762802 12.0443 0.816972 12.0195 0.88007L11.8508 1.28674C11.5678 1.97679 11.031 2.53202 10.3508 2.83807L9.87216 3.0514C9.81096 3.07972 9.75914 3.12496 9.72283 3.18179C9.68651 3.23861 9.66721 3.30463 9.66721 3.37207C9.66721 3.43951 9.68651 3.50553 9.72283 3.56235C9.75914 3.61917 9.81096 3.66442 9.87216 3.69274L10.3788 3.91807C11.0423 4.21565 11.5701 4.75109 11.8582 5.41874L12.0222 5.79607C12.1422 6.07207 12.5242 6.07207 12.6448 5.79607ZM12.3335 7.3334C12.7802 7.3334 13.2088 7.26007 13.6102 7.1254C13.6479 7.41207 13.6668 7.70363 13.6668 8.00007C13.6668 11.6821 10.6822 14.6667 7.00016 14.6667C3.31816 14.6667 0.333496 11.6821 0.333496 8.00007C0.333496 4.31807 3.31816 1.3334 7.00016 1.3334C7.60416 1.3334 8.18883 1.4134 8.74483 1.56407C8.444 2.17401 8.30366 2.85057 8.33706 3.52984C8.37046 4.20911 8.5765 4.86864 8.9357 5.44613C9.29491 6.02361 9.79543 6.49997 10.39 6.8302C10.9845 7.16043 11.6534 7.33362 12.3335 7.3334ZM7.66683 7.3334V4.00007L4.3335 8.66674H6.3335V12.0001L9.66683 7.3334H7.66683Z" fill="url(#paint0_linear_723_30303)"/>
<defs>
<linearGradient id="paint0_linear_723_30303" x1="-0.277629" y1="1.24938" x2="15.2212" y2="16.2604" gradientUnits="userSpaceOnUse">
<stop stop-color="#0E1634"/>
<stop offset="0.480769" stop-color="#475278"/>
<stop offset="0.978177" stop-color="#121A39"/>
</linearGradient>
</defs>
</svg>
