<svg width="18" height="18" viewBox="0 0 18 18" fill="none" xmlns="http://www.w3.org/2000/svg">
<path d="M15.75 14.25C15.75 15.0784 15.0876 15.75 14.2705 15.75L3.72945 15.75C2.91237 15.75 2.25 15.0784 2.25 14.25L2.25 12C2.25 11.1716 2.91237 10.5 3.72945 10.5L14.2705 10.5C15.0876 10.5 15.75 11.1716 15.75 12V14.25Z" stroke="#4F4D55" stroke-width="1.5" stroke-linecap="round" stroke-linejoin="round"/>
<path d="M15.75 3.75C15.75 2.92157 15.0876 2.25 14.2705 2.25L3.72945 2.25C2.91237 2.25 2.25 2.92157 2.25 3.75L2.25 6C2.25 6.82843 2.91237 7.5 3.72945 7.5H14.2705C15.0876 7.5 15.75 6.82843 15.75 6V3.75Z" stroke="#4F4D55" stroke-width="1.5" stroke-linecap="round" stroke-linejoin="round"/>
</svg>
