<svg width="21" height="20" viewBox="0 0 21 20" fill="none" xmlns="http://www.w3.org/2000/svg">
<path fill-rule="evenodd" clip-rule="evenodd" d="M15.334 2C16.9908 2 18.334 3.34315 18.334 5L18.334 15.0001C18.334 16.6569 16.9908 18.0001 15.334 18.0001H5.33398C3.67713 18.0001 2.33398 16.6569 2.33398 15.0001V5C2.33398 3.34315 3.67713 2 5.33398 2H15.334ZM5.33366 5.83341C4.87342 5.83341 4.50033 6.20651 4.50033 6.66675C4.50033 7.12699 4.87342 7.50008 5.33366 7.50008H15.3337C15.7939 7.50008 16.167 7.12699 16.167 6.66675C16.167 6.20651 15.7939 5.83341 15.3337 5.83341H5.33366ZM5.33366 9.16675C4.87342 9.16675 4.50033 9.53984 4.50033 10.0001C4.50033 10.4603 4.87342 10.8334 5.33366 10.8334H15.3337C15.7939 10.8334 16.167 10.4603 16.167 10.0001C16.167 9.53984 15.7939 9.16675 15.3337 9.16675H5.33366ZM5.33366 12.5001C4.87342 12.5001 4.50033 12.8732 4.50033 13.3334C4.50033 13.7937 4.87342 14.1667 5.33366 14.1667H11.2712C11.7314 14.1667 12.1045 13.7937 12.1045 13.3334C12.1045 12.8732 11.7314 12.5001 11.2712 12.5001H5.33366Z" fill="#4624F1"/>
</svg>
