<svg width="20" height="20" viewBox="0 0 20 20" fill="none" xmlns="http://www.w3.org/2000/svg">
<path d="M2.00006 4.16667C2.00006 3.52233 2.51173 3 3.14292 3H7.71435C8.34553 3 8.8572 3.52233 8.8572 4.16667V4.33333C8.8572 4.88562 8.40949 5.33333 7.8572 5.33333H3.00006C2.44777 5.33333 2.00006 4.88562 2.00006 4.33333V4.16667Z" fill="#7F7D83"/>
<path d="M2.00033 8.49992C2.00037 7.39538 2.89579 6.5 4.00033 6.5H16.0001C17.1046 6.5 18.0001 7.39543 18.0001 8.5V15C18.0001 16.1046 17.1046 17 16.0001 17H4.00008C2.89548 17 2.00003 16.1045 2.00008 14.9999L2.00033 8.49992Z" fill="#7F7D83"/>
</svg>
