<svg width="16" height="16" viewBox="0 0 16 16" fill="none" xmlns="http://www.w3.org/2000/svg">
<path d="M7.02734 2.52051C7.24398 2.52712 7.39219 2.61579 7.48145 2.74707C7.56686 2.87279 7.59175 3.02648 7.5918 3.1543C7.5918 3.39064 7.50915 3.56891 7.36133 3.68457C7.21762 3.79698 7.0254 3.83983 6.82422 3.83984C6.15506 3.83984 5.53026 3.96214 4.94922 4.20605C4.36688 4.45054 3.8563 4.79044 3.41699 5.22559C2.97766 5.66081 2.63527 6.16632 2.38965 6.74219C2.14457 7.3168 2.02149 7.93302 2.02148 8.5918C2.02148 9.25047 2.14605 9.86684 2.39355 10.4414C2.64168 11.0173 2.98546 11.5228 3.4248 11.958C3.8641 12.3931 4.37471 12.7331 4.95703 12.9775C5.53801 13.2214 6.16294 13.3438 6.83203 13.3438C7.50613 13.3437 8.13439 13.2214 8.71777 12.9775C9.30269 12.733 9.81463 12.3932 10.2539 11.958C10.6933 11.5227 11.037 11.0174 11.2852 10.4414C11.5327 9.86684 11.6562 9.25047 11.6562 8.5918C11.6562 8.49822 11.6545 8.4053 11.6494 8.31348C11.6423 8.18393 11.6697 8.07853 11.7236 7.99512C11.7773 7.91228 11.8521 7.859 11.9268 7.8252C12.0701 7.76032 12.2274 7.75975 12.2812 7.75977H12.2939C12.4286 7.75972 12.5941 7.76051 12.7275 7.81738C12.7995 7.84813 12.8647 7.89615 12.9131 7.96973C12.9611 8.04272 12.9879 8.13385 12.9941 8.24414C13.0006 8.35906 13.0039 8.47506 13.0039 8.5918C13.0039 9.41953 12.8424 10.2009 12.5186 10.9346C12.1953 11.6666 11.7492 12.3143 11.1816 12.876C10.614 13.4376 9.9586 13.8766 9.21582 14.1924C8.47151 14.5088 7.67641 14.6669 6.83203 14.667C5.99243 14.667 5.19944 14.5088 4.45508 14.1924C3.7121 13.8765 3.05601 13.4378 2.48828 12.876C1.92074 12.3143 1.47553 11.6666 1.15234 10.9346C0.82845 10.2009 0.666992 9.41955 0.666992 8.5918C0.667003 7.76403 0.828424 6.98276 1.15234 6.24902C1.47543 5.51722 1.91955 4.87014 2.48438 4.30859C3.04961 3.74675 3.70432 3.30706 4.44727 2.99121C5.19162 2.67479 5.98462 2.51758 6.82422 2.51758C6.89225 2.51758 6.95995 2.51846 7.02734 2.52051ZM8.58203 10.0635C8.67703 10.0234 8.77503 10.024 8.86719 10.0693C8.91358 10.0922 8.95389 10.1251 8.98145 10.1699C9.00893 10.2147 9.02051 10.2656 9.02051 10.3174C9.0205 10.4902 8.9089 10.6758 8.73047 10.8691C8.54418 11.071 8.28857 11.2467 7.96777 11.3984C7.63888 11.554 7.25665 11.6308 6.82422 11.6309C6.39656 11.6309 6.01568 11.5547 5.68457 11.3994C5.36117 11.2477 5.10504 11.0715 4.9209 10.8691C4.74485 10.6756 4.63575 10.4897 4.63574 10.3174C4.63574 10.2663 4.64659 10.2164 4.67285 10.1719C4.69928 10.1271 4.73773 10.0936 4.7832 10.0703C4.87399 10.0238 4.97104 10.0238 5.06543 10.0635L5.06836 10.0645C5.29152 10.167 5.53788 10.2701 5.80664 10.373C6.06191 10.4708 6.39999 10.5225 6.82422 10.5225C7.24835 10.5225 7.58776 10.471 7.8457 10.373C8.11674 10.2702 8.3614 10.1678 8.5791 10.0654L8.58203 10.0635ZM5.08789 6.3457C5.31253 6.34576 5.50929 6.43512 5.67383 6.60547C5.84209 6.77976 5.92279 7.00566 5.92285 7.27344C5.92285 7.53281 5.84152 7.75414 5.67383 7.92773C5.5093 8.09803 5.31249 8.18647 5.08789 8.18652C4.863 8.18652 4.66781 8.09723 4.50781 7.92578C4.34587 7.75208 4.26758 7.53167 4.26758 7.27344C4.26764 7.00656 4.34506 6.78089 4.50781 6.60645C4.66781 6.435 4.863 6.3457 5.08789 6.3457ZM8.56055 6.3457C8.78961 6.3457 8.98754 6.43495 9.15039 6.60645C9.31597 6.78083 9.39544 7.00606 9.39551 7.27344C9.39551 7.53232 9.31532 7.75308 9.15039 7.92676C8.98758 8.09811 8.78951 8.18652 8.56055 8.18652C8.3399 8.18651 8.1477 8.09661 7.98828 7.92578C7.82632 7.75207 7.74805 7.53168 7.74805 7.27344C7.74811 7.00654 7.82551 6.78089 7.98828 6.60645C8.1477 6.43562 8.3399 6.34571 8.56055 6.3457ZM12.0586 0C12.4625 5.75916e-05 12.792 0.323154 12.792 0.724609V2.50293H14.5996C15.0034 2.50302 15.333 2.82615 15.333 3.22754C15.333 3.62897 15.0035 3.95206 14.5996 3.95215H12.792V5.73047C12.792 6.13192 12.4625 6.45502 12.0586 6.45508C11.6547 6.45508 11.3242 6.13196 11.3242 5.73047V3.95215H9.51758C9.11366 3.95215 8.7832 3.62903 8.7832 3.22754C8.78326 2.82609 9.11369 2.50293 9.51758 2.50293H11.3242V0.724609C11.3242 0.323118 11.6547 0 12.0586 0Z" fill="#0E1634" fill-opacity="0.6"/>
</svg>
