<svg width="20" height="20" viewBox="0 0 20 20" fill="none" xmlns="http://www.w3.org/2000/svg">
<path d="M16.0669 7.5234C16.0787 7.85456 16.3567 8.11346 16.6879 8.10167C17.019 8.08988 17.2779 7.81186 17.2661 7.4807L16.6665 7.50205L16.0669 7.5234ZM13.0948 4.16872V4.76872C13.1015 4.76872 13.1082 4.7686 13.1149 4.76838L13.0948 4.16872ZM7.73817 4.16872L7.71813 4.76838C7.72481 4.7686 7.73149 4.76872 7.73817 4.76872V4.16872ZM3.56688 7.4807C3.55509 7.81186 3.81399 8.08988 4.14515 8.10167C4.47631 8.11346 4.75433 7.85456 4.76612 7.5234L4.1665 7.50205L3.56688 7.4807ZM17.2665 7.50205C17.2665 7.17068 16.9979 6.90205 16.6665 6.90205C16.3351 6.90205 16.0665 7.17068 16.0665 7.50205H16.6665H17.2665ZM16.6665 12.502L17.2661 12.5234C17.2664 12.5163 17.2665 12.5092 17.2665 12.502H16.6665ZM13.0948 15.8354L13.1149 15.2357C13.1082 15.2355 13.1015 15.2354 13.0948 15.2354V15.8354ZM7.73817 15.8354V15.2354C7.73149 15.2354 7.72481 15.2355 7.71813 15.2357L7.73817 15.8354ZM4.1665 12.502H3.5665C3.5665 12.5092 3.56663 12.5163 3.56688 12.5234L4.1665 12.502ZM4.7665 7.50205C4.7665 7.17068 4.49787 6.90205 4.1665 6.90205C3.83513 6.90205 3.5665 7.17068 3.5665 7.50205H4.1665H4.7665ZM16.9691 8.02013C17.2553 7.85299 17.3517 7.48554 17.1846 7.19941C17.0174 6.91328 16.65 6.81682 16.3639 6.98397L16.6665 7.50205L16.9691 8.02013ZM12.2798 10.0645L11.9772 9.54644L11.9722 9.54942L12.2798 10.0645ZM8.55317 10.0645L8.86082 9.54939L8.85581 9.54647L8.55317 10.0645ZM4.46914 6.98397C4.18302 6.81682 3.81557 6.91328 3.64842 7.19941C3.48128 7.48554 3.57773 7.85299 3.86386 8.02013L4.1665 7.50205L4.46914 6.98397ZM16.6665 7.50205L17.2661 7.4807C17.1865 5.24422 15.3114 3.49429 13.0748 3.56905L13.0948 4.16872L13.1149 4.76838C14.6902 4.71573 16.0108 5.94822 16.0669 7.5234L16.6665 7.50205ZM13.0948 4.16872V3.56872H7.73817V4.16872V4.76872H13.0948V4.16872ZM7.73817 4.16872L7.75821 3.56905C5.52157 3.49429 3.64652 5.24422 3.56688 7.4807L4.1665 7.50205L4.76612 7.5234C4.82221 5.94822 6.14283 4.71573 7.71813 4.76838L7.73817 4.16872ZM16.6665 7.50205H16.0665V12.502H16.6665H17.2665V7.50205H16.6665ZM16.6665 12.502L16.0669 12.4807C16.0108 14.0559 14.6902 15.2884 13.1149 15.2357L13.0948 15.8354L13.0748 16.435C15.3114 16.5098 17.1865 14.7599 17.2661 12.5234L16.6665 12.502ZM13.0948 15.8354V15.2354H7.73817V15.8354V16.4354H13.0948V15.8354ZM7.73817 15.8354L7.71813 15.2357C6.14283 15.2884 4.82221 14.0559 4.76612 12.4807L4.1665 12.502L3.56688 12.5234C3.64652 14.7599 5.52157 16.5098 7.75821 16.435L7.73817 15.8354ZM4.1665 12.502H4.7665V7.50205H4.1665H3.5665V12.502H4.1665ZM16.6665 7.50205L16.3639 6.98397L11.9772 9.54647L12.2798 10.0645L12.5825 10.5826L16.9691 8.02013L16.6665 7.50205ZM12.2798 10.0645L11.9722 9.54942C11.014 10.1217 9.81901 10.1217 8.86081 9.54942L8.55317 10.0645L8.24553 10.5797C9.5827 11.3782 11.2503 11.3782 12.5875 10.5797L12.2798 10.0645ZM8.55317 10.0645L8.85581 9.54647L4.46914 6.98397L4.1665 7.50205L3.86386 8.02013L8.25053 10.5826L8.55317 10.0645Z" fill="#485467"/>
</svg>
