<svg width="24" height="24" viewBox="0 0 24 24" fill="none" xmlns="http://www.w3.org/2000/svg">
<path fill-rule="evenodd" clip-rule="evenodd" d="M16.7998 21.5999H7.1998C5.87432 21.5999 4.7998 20.5254 4.7998 19.1999V4.7999C4.7998 3.47442 5.87432 2.3999 7.1998 2.3999L14.6057 2.3999C15.2422 2.3999 15.8527 2.65276 16.3027 3.10285L18.4969 5.29696C18.9469 5.74705 19.1998 6.3575 19.1998 6.99402V19.1999C19.1998 20.5254 18.1253 21.5999 16.7998 21.5999ZM17.1513 7.79976H14.3998C14.0684 7.79976 13.7998 7.53113 13.7998 7.19976V4.44829C13.7998 3.91374 14.4461 3.64604 14.8241 4.02402L17.5755 6.77549C17.9535 7.15347 17.6858 7.79976 17.1513 7.79976Z" fill="#4F4D55"/>
</svg>
