<svg width="20" height="20" viewBox="0 0 20 20" fill="none" xmlns="http://www.w3.org/2000/svg">
<path fill-rule="evenodd" clip-rule="evenodd" d="M10 18C14.4183 18 18 14.4183 18 10C18 5.58172 14.4183 2 10 2C5.58172 2 2 5.58172 2 10C2 14.4183 5.58172 18 10 18ZM11 6C11 5.44772 10.5523 5 10 5C9.44772 5 9 5.44772 9 6C9 6.55228 9.44772 7 10 7C10.5523 7 11 6.55228 11 6ZM11 9.5C11 8.94772 10.5523 8.5 10 8.5C9.44772 8.5 9 8.94772 9 9.5L9 13.5C9 14.0523 9.44772 14.5 10 14.5C10.5523 14.5 11 14.0523 11 13.5V9.5Z" fill="#4F4D55"/>
</svg>
