<svg width="24" height="24" viewBox="0 0 24 24" fill="none" xmlns="http://www.w3.org/2000/svg">
<path d="M13.7678 10.2313C11.8742 8.3378 8.84001 8.28042 6.87744 10.0592L6.69666 10.2313L3.86826 13.0597C1.91556 15.0123 1.91556 18.1781 3.86826 20.1307C5.76169 22.0242 8.7959 22.0816 10.7585 20.3028L10.9393 20.1307L13.0606 18.0094C13.4512 17.6189 13.4512 16.9857 13.0606 16.5952C12.7001 16.2347 12.1329 16.207 11.7406 16.512L11.6464 16.5952L9.52506 18.7165C8.35346 19.8881 6.45396 19.8881 5.28246 18.7165C4.15772 17.5919 4.11273 15.7963 5.14749 14.6179L5.28246 14.4739L8.11086 11.6455C9.28246 10.4739 11.1819 10.4739 12.3534 11.6455C12.744 12.036 13.3771 12.036 13.7677 11.6455C14.1581 11.255 14.1582 10.6218 13.7678 10.2313ZM20.1317 3.8673C18.2383 1.97385 15.204 1.91647 13.2414 3.69517L13.0607 3.8673L10.9394 5.98862C10.5489 6.37914 10.5489 7.01231 10.9394 7.40283C11.2998 7.76332 11.8671 7.79105 12.2594 7.48602L12.3536 7.40283L14.4749 5.28151C15.6464 4.10994 17.5459 4.10994 18.7175 5.28151C19.8422 6.40621 19.8872 8.20178 18.8525 9.38016L18.7175 9.52415L15.8891 12.3526C14.7175 13.5242 12.818 13.5241 11.6465 12.3526C11.256 11.962 10.6228 11.962 10.2323 12.3526C9.84166 12.7431 9.84176 13.3763 10.2323 13.7668C12.1257 15.6602 15.1599 15.7176 17.1225 13.9389L17.3033 13.7668L20.1317 10.9384C22.0843 8.98574 22.0843 5.81992 20.1317 3.8673Z" fill="#09244B"/>
</svg>
