<svg width="24" height="24" viewBox="0 0 24 24" fill="none" xmlns="http://www.w3.org/2000/svg">
<path d="M5.43576 16.7202C6.24693 16.7202 6.90006 17.3807 6.90006 18.1869C6.90006 18.4774 6.81337 18.7582 6.65589 18.9952C6.81331 19.2321 6.89997 19.5129 6.89997 19.8033C6.89997 20.6096 6.24685 21.27 5.43567 21.27C4.78616 21.27 4.27297 20.9917 4.00872 20.3689C3.86849 20.0385 4.02271 19.6569 4.35318 19.5167C4.68364 19.3764 5.06521 19.5307 5.20544 19.8611C5.23345 19.9271 5.29822 19.97 5.36995 19.97C5.479 19.97 5.59997 19.9398 5.59997 19.8033C5.59997 19.7024 5.52693 19.6599 5.44362 19.6485L5.39291 19.6452C5.03386 19.6452 4.74283 19.3541 4.74283 18.995C4.74283 18.6686 4.98333 18.3985 5.29677 18.352L5.39283 18.345C5.49475 18.345 5.60006 18.3081 5.60006 18.1869C5.60006 18.0504 5.47911 18.0202 5.37007 18.0202C5.29835 18.0202 5.23357 18.0631 5.20556 18.1291C5.06533 18.4596 4.68376 18.6138 4.3533 18.4736C4.02283 18.3333 3.86861 17.9518 4.00884 17.6213C4.27308 16.9986 4.78626 16.7202 5.43576 16.7202ZM20 18C20.5523 18 21 18.4477 21 19C21 19.5523 20.5523 20 20 20H9C8.44772 20 8 19.5523 8 19C8 18.4477 8.44772 18 9 18H20ZM6.08078 9.94525C6.72558 10.2677 7.05451 11.0088 6.88063 11.7043C6.81679 11.9596 6.68907 12.1946 6.50947 12.387L5.95592 12.9801H6.4256C6.78459 12.9801 7.0756 13.2711 7.0756 13.6301C7.0756 13.9891 6.78459 14.2801 6.4256 14.2801H4.5731C4.21155 14.2801 3.91846 13.987 3.91846 13.6255C3.91846 13.4195 3.9468 13.2274 4.09452 13.0692L5.5591 11.5C5.66833 11.383 5.64089 11.1787 5.49941 11.108C5.36294 11.0398 5.25019 11.1187 5.22413 11.2497L5.21846 11.3087C5.21846 11.6677 4.92744 11.9587 4.56846 11.9587C4.17777 11.9587 3.91846 11.632 3.91846 11.2617C3.91846 10.5817 4.38122 9.98904 5.04087 9.82413C5.3917 9.73642 5.75867 9.7842 6.08078 9.94525ZM20 11C20.5523 11 21 11.4477 21 12C21 12.5128 20.614 12.9355 20.1166 12.9933L20 13H9C8.44772 13 8 12.5523 8 12C8 11.4872 8.38604 11.0645 8.88338 11.0067L9 11H20ZM6.15004 3.38925V6.62991C6.15004 6.9889 5.85903 7.27991 5.50004 7.27991C5.14106 7.27991 4.85004 6.9889 4.85004 6.62991V4.52233C4.60765 4.5599 4.35422 4.45799 4.20921 4.24047C4.01008 3.94177 4.0908 3.53821 4.38949 3.33908L5.13172 2.84426C5.56699 2.55408 6.15004 2.8661 6.15004 3.38925ZM20 4C20.5523 4 21 4.44772 21 5C21 5.51283 20.614 5.93551 20.1166 5.99327L20 6H9C8.44772 6 8 5.55228 8 5C8 4.48717 8.38604 4.06449 8.88338 4.00673L9 4H20Z" fill="#09244B"/>
</svg>
