<svg width="20" height="20" viewBox="0 0 20 20" fill="none" xmlns="http://www.w3.org/2000/svg">
<path fill-rule="evenodd" clip-rule="evenodd" d="M17 6.45222C17 6.12909 16.8288 5.83052 16.551 5.66895L10.4491 2.12117C10.1712 1.95961 9.82882 1.95961 9.55095 2.12117L3.44905 5.66895C3.17118 5.83052 3 6.12909 3 6.45222V13.5478C3 13.8709 3.17118 14.1695 3.44905 14.331L9.55095 17.8788C9.82882 18.0404 10.1712 18.0404 10.4491 17.8788L16.551 14.331C16.8288 14.1695 17 13.8709 17 13.5478V6.45222ZM10 12.7133C11.488 12.7133 12.6943 11.4985 12.6943 10C12.6943 8.50148 11.488 7.28669 10 7.28669C8.51198 7.28669 7.3057 8.50148 7.3057 10C7.3057 11.4985 8.51198 12.7133 10 12.7133Z" fill="#7F7D83"/>
</svg>
