<svg width="20" height="20" viewBox="0 0 20 20" fill="none" xmlns="http://www.w3.org/2000/svg">
<path d="M9.05566 2.16835C8.81666 2.00935 8.52016 1.95958 8.24316 2.03358C7.9662 2.1066 7.73446 2.29614 7.60547 2.55311C7.12263 3.51978 6.76133 4.1065 6.39844 4.58241C6.03045 5.0644 5.64275 5.45921 5.05078 6.05018C3.6849 7.41707 3.00011 9.20955 3 10.9994C3 12.7894 3.68478 14.5826 5.05078 15.9496C7.78479 18.6825 12.2162 18.6826 14.9502 15.9496C16.3161 14.5826 17 12.7894 17 10.9994C16.9081 8.61558 15.4014 7.13478 14.6289 6.5287C14.442 6.38209 14.1023 6.51675 13.9795 6.72011C13.9026 6.84747 13.7955 6.99918 13.6484 7.17714C13.2191 7.69666 12.6024 8.01452 12.3574 8.05311C12.3036 8.06124 12.2823 7.94136 12.1592 7.6371C11.3236 5.57332 11.3154 5.82293 10.9814 5.01893C10.8143 4.61579 10.091 3.37935 9.87695 3.04823C9.66904 2.72637 9.40144 2.39933 9.05566 2.16835ZM9.58789 8.63026C10.4479 9.39981 11.0143 10.444 11.1914 11.5844C11.8438 11.4261 12.4455 11.1388 12.9688 10.7514C13.1097 11.1807 13.1563 11.6355 13.1045 12.0844C13.0526 12.5334 12.9032 12.966 12.668 13.3519C12.4327 13.7379 12.1165 14.0688 11.7412 14.3207C11.366 14.5725 10.9403 14.7404 10.4941 14.8119C10.0479 14.8833 9.59136 14.8567 9.15625 14.7348C8.72115 14.6127 8.31764 14.3979 7.97363 14.1049C7.62954 13.8117 7.35273 13.4468 7.16309 13.0365C6.97357 12.6263 6.87531 12.1798 6.875 11.7279C6.87506 10.9706 7.15051 10.239 7.64941 9.66932C8.14833 9.09971 8.8373 8.73022 9.58789 8.63026Z" fill="#CC2711"/>
</svg>
