<svg width="16" height="16" viewBox="0 0 16 16" fill="none" xmlns="http://www.w3.org/2000/svg">
<path d="M10.0054 10.9998C10.0054 11.9203 10.7504 12.6665 11.6693 12.6665C12.5882 12.6665 13.3332 11.9203 13.3332 10.9998C13.3332 10.0794 12.5882 9.33317 11.6693 9.33317C10.7504 9.33317 10.0054 10.0794 10.0054 10.9998ZM10.0054 10.9998H8.34204C6.14019 10.9998 4.35523 9.21187 4.35523 7.00631V6.00068M5.99422 4.33317C5.99422 5.25365 5.24929 5.99984 4.33036 5.99984C3.41144 5.99984 2.6665 5.25365 2.6665 4.33317C2.6665 3.4127 3.41144 2.6665 4.33036 2.6665C5.24929 2.6665 5.99422 3.4127 5.99422 4.33317Z" stroke="#4F4D55" stroke-width="1.5" stroke-linecap="round"/>
</svg>
