<svg width="24" height="24" viewBox="0 0 24 24" fill="none" xmlns="http://www.w3.org/2000/svg">
<path d="M12 3.66675C16.6023 3.66675 20.3338 7.39753 20.334 11.9998C20.334 16.6021 16.6024 20.3337 12 20.3337C7.39778 20.3336 3.66699 16.602 3.66699 11.9998C3.66717 7.39764 7.39789 3.66692 12 3.66675ZM12.001 5.49976C8.41121 5.49976 5.50111 8.41002 5.50098 11.9998C5.50098 15.5896 8.41113 18.4998 12.001 18.4998C15.5907 18.4996 18.501 15.5895 18.501 11.9998C18.5008 8.41013 15.5906 5.49993 12.001 5.49976ZM12.8301 7.06812C15.1965 7.4634 17.0009 9.52115 17.001 11.9998C17.001 14.4785 15.1966 16.5361 12.8301 16.9314C12.3763 17.0069 12.001 16.6268 12.001 16.1667V7.83374C12.001 7.37366 12.3763 6.99263 12.8301 7.06812Z" fill="#0E1734"/>
<path d="M12 3.66675C16.6023 3.66675 20.3338 7.39753 20.334 11.9998C20.334 16.6021 16.6024 20.3337 12 20.3337C7.39778 20.3336 3.66699 16.602 3.66699 11.9998C3.66717 7.39764 7.39789 3.66692 12 3.66675ZM12.001 5.49976C8.41121 5.49976 5.50111 8.41002 5.50098 11.9998C5.50098 15.5896 8.41113 18.4998 12.001 18.4998C15.5907 18.4996 18.501 15.5895 18.501 11.9998C18.5008 8.41013 15.5906 5.49993 12.001 5.49976ZM12.8301 7.06812C15.1965 7.4634 17.0009 9.52115 17.001 11.9998C17.001 14.4785 15.1966 16.5361 12.8301 16.9314C12.3763 17.0069 12.001 16.6268 12.001 16.1667V7.83374C12.001 7.37366 12.3763 6.99263 12.8301 7.06812Z" stroke="#0E1734"/>
</svg>
