<svg width="20" height="20" viewBox="0 0 20 20" fill="none" xmlns="http://www.w3.org/2000/svg">
<path fill-rule="evenodd" clip-rule="evenodd" d="M6.33301 1.9165H13.333C14.9899 1.9165 16.333 3.25965 16.333 4.9165V15.2509C16.333 16.7237 15.1394 17.9165 13.6666 17.9165H6.33301C4.67615 17.9165 3.33301 16.5734 3.33301 14.9165V4.9165C3.33301 3.25965 4.67615 1.9165 6.33301 1.9165ZM7 5.16651C6.53976 5.16651 6.16667 5.5396 6.16667 5.99984C6.16667 6.46008 6.53976 6.83317 7 6.83317H13C13.4602 6.83317 13.8333 6.46008 13.8333 5.99984C13.8333 5.5396 13.4602 5.16651 13 5.16651H7ZM7 8.1665C6.53976 8.1665 6.16667 8.5396 6.16667 8.99984C6.16667 9.46008 6.53976 9.83317 7 9.83317H13C13.4602 9.83317 13.8333 9.46008 13.8333 8.99984C13.8333 8.5396 13.4602 8.1665 13 8.1665H7ZM7 11.1665C6.53976 11.1665 6.16667 11.5396 6.16667 11.9998C6.16667 12.4601 6.53976 12.8332 7 12.8332H10C10.4602 12.8332 10.8333 12.4601 10.8333 11.9998C10.8333 11.5396 10.4602 11.1665 10 11.1665H7Z" fill="#7F7D83"/>
</svg>
